<mxfile host="app.diagrams.net" agent="Mozilla/5.0 (Windows NT 10.0; Win64; x64) AppleWebKit/537.36 (KHTML, like Gecko) Chrome/128.0.0.0 Safari/537.36" version="24.7.14">
  <diagram name="Page-1" id="KaFTrGLIOlyGGPlwUO8_">
    <mxGraphModel dx="1970" dy="1534" grid="1" gridSize="10" guides="1" tooltips="1" connect="1" arrows="1" fold="1" page="1" pageScale="1" pageWidth="850" pageHeight="1100" math="0" shadow="0">
      <root>
        <mxCell id="0" />
        <mxCell id="1" parent="0" />
        <mxCell id="FtL78UARy_mJjxNi5V5w-7" style="edgeStyle=orthogonalEdgeStyle;rounded=0;orthogonalLoop=1;jettySize=auto;html=1;entryX=0.5;entryY=0;entryDx=0;entryDy=0;" edge="1" parent="1" source="FtL78UARy_mJjxNi5V5w-1" target="FtL78UARy_mJjxNi5V5w-4">
          <mxGeometry relative="1" as="geometry" />
        </mxCell>
        <mxCell id="FtL78UARy_mJjxNi5V5w-1" value="Banco" style="whiteSpace=wrap;html=1;align=center;" vertex="1" parent="1">
          <mxGeometry x="280" y="-70" width="100" height="40" as="geometry" />
        </mxCell>
        <mxCell id="FtL78UARy_mJjxNi5V5w-6" style="edgeStyle=orthogonalEdgeStyle;rounded=0;orthogonalLoop=1;jettySize=auto;html=1;entryX=0;entryY=0.5;entryDx=0;entryDy=0;" edge="1" parent="1" source="FtL78UARy_mJjxNi5V5w-2" target="FtL78UARy_mJjxNi5V5w-4">
          <mxGeometry relative="1" as="geometry">
            <Array as="points">
              <mxPoint x="-30" y="140" />
            </Array>
          </mxGeometry>
        </mxCell>
        <mxCell id="FtL78UARy_mJjxNi5V5w-2" value="Pessoa" style="whiteSpace=wrap;html=1;align=center;" vertex="1" parent="1">
          <mxGeometry x="-90" y="40" width="100" height="40" as="geometry" />
        </mxCell>
        <mxCell id="FtL78UARy_mJjxNi5V5w-5" style="edgeStyle=orthogonalEdgeStyle;rounded=0;orthogonalLoop=1;jettySize=auto;html=1;exitX=0;exitY=0.5;exitDx=0;exitDy=0;entryX=1;entryY=0.5;entryDx=0;entryDy=0;" edge="1" parent="1" source="FtL78UARy_mJjxNi5V5w-3" target="FtL78UARy_mJjxNi5V5w-4">
          <mxGeometry relative="1" as="geometry">
            <Array as="points">
              <mxPoint x="620" y="140" />
            </Array>
          </mxGeometry>
        </mxCell>
        <mxCell id="FtL78UARy_mJjxNi5V5w-3" value="Company" style="whiteSpace=wrap;html=1;align=center;" vertex="1" parent="1">
          <mxGeometry x="570" y="30" width="100" height="40" as="geometry" />
        </mxCell>
        <mxCell id="FtL78UARy_mJjxNi5V5w-30" style="edgeStyle=orthogonalEdgeStyle;rounded=0;orthogonalLoop=1;jettySize=auto;html=1;exitX=0.5;exitY=1;exitDx=0;exitDy=0;entryX=0.5;entryY=0;entryDx=0;entryDy=0;" edge="1" parent="1" source="FtL78UARy_mJjxNi5V5w-4" target="FtL78UARy_mJjxNi5V5w-8">
          <mxGeometry relative="1" as="geometry" />
        </mxCell>
        <mxCell id="FtL78UARy_mJjxNi5V5w-4" value="u" style="ellipse;whiteSpace=wrap;html=1;align=center;" vertex="1" parent="1">
          <mxGeometry x="310" y="120" width="40" height="40" as="geometry" />
        </mxCell>
        <mxCell id="FtL78UARy_mJjxNi5V5w-8" value="Owner" style="rounded=0;whiteSpace=wrap;html=1;" vertex="1" parent="1">
          <mxGeometry x="270" y="290" width="120" height="60" as="geometry" />
        </mxCell>
        <mxCell id="FtL78UARy_mJjxNi5V5w-17" style="edgeStyle=orthogonalEdgeStyle;rounded=0;orthogonalLoop=1;jettySize=auto;html=1;entryX=0;entryY=0.75;entryDx=0;entryDy=0;" edge="1" parent="1" source="FtL78UARy_mJjxNi5V5w-11" target="FtL78UARy_mJjxNi5V5w-2">
          <mxGeometry relative="1" as="geometry">
            <Array as="points">
              <mxPoint x="-150" y="70" />
            </Array>
          </mxGeometry>
        </mxCell>
        <mxCell id="FtL78UARy_mJjxNi5V5w-11" value="CPF" style="ellipse;whiteSpace=wrap;html=1;align=center;" vertex="1" parent="1">
          <mxGeometry x="-190" y="-70" width="80" height="40" as="geometry" />
        </mxCell>
        <mxCell id="FtL78UARy_mJjxNi5V5w-19" style="edgeStyle=orthogonalEdgeStyle;rounded=0;orthogonalLoop=1;jettySize=auto;html=1;" edge="1" parent="1" source="FtL78UARy_mJjxNi5V5w-13" target="FtL78UARy_mJjxNi5V5w-2">
          <mxGeometry relative="1" as="geometry" />
        </mxCell>
        <mxCell id="FtL78UARy_mJjxNi5V5w-13" value="&lt;span style=&quot;border-bottom: 1px dotted&quot;&gt;Nome&lt;/span&gt;" style="ellipse;whiteSpace=wrap;html=1;align=center;" vertex="1" parent="1">
          <mxGeometry x="-50" y="-80" width="80" height="40" as="geometry" />
        </mxCell>
        <mxCell id="FtL78UARy_mJjxNi5V5w-20" style="edgeStyle=orthogonalEdgeStyle;rounded=0;orthogonalLoop=1;jettySize=auto;html=1;entryX=1;entryY=0.75;entryDx=0;entryDy=0;" edge="1" parent="1" source="FtL78UARy_mJjxNi5V5w-14" target="FtL78UARy_mJjxNi5V5w-2">
          <mxGeometry relative="1" as="geometry" />
        </mxCell>
        <mxCell id="FtL78UARy_mJjxNi5V5w-14" value="&lt;span style=&quot;border-bottom: 1px dotted&quot;&gt;Endereço&lt;/span&gt;" style="ellipse;whiteSpace=wrap;html=1;align=center;" vertex="1" parent="1">
          <mxGeometry x="60" y="-30" width="70" height="40" as="geometry" />
        </mxCell>
        <mxCell id="FtL78UARy_mJjxNi5V5w-18" style="edgeStyle=orthogonalEdgeStyle;rounded=0;orthogonalLoop=1;jettySize=auto;html=1;entryX=0.3;entryY=0.25;entryDx=0;entryDy=0;entryPerimeter=0;" edge="1" parent="1" target="FtL78UARy_mJjxNi5V5w-2">
          <mxGeometry relative="1" as="geometry">
            <mxPoint x="-60" y="-120" as="sourcePoint" />
          </mxGeometry>
        </mxCell>
        <mxCell id="FtL78UARy_mJjxNi5V5w-26" style="edgeStyle=orthogonalEdgeStyle;rounded=0;orthogonalLoop=1;jettySize=auto;html=1;exitX=0.5;exitY=1;exitDx=0;exitDy=0;entryX=0.5;entryY=0;entryDx=0;entryDy=0;" edge="1" parent="1" source="FtL78UARy_mJjxNi5V5w-21" target="FtL78UARy_mJjxNi5V5w-1">
          <mxGeometry relative="1" as="geometry" />
        </mxCell>
        <mxCell id="FtL78UARy_mJjxNi5V5w-21" value="Bnome" style="ellipse;whiteSpace=wrap;html=1;align=center;fontStyle=4;" vertex="1" parent="1">
          <mxGeometry x="280" y="-160" width="100" height="40" as="geometry" />
        </mxCell>
        <mxCell id="FtL78UARy_mJjxNi5V5w-27" style="edgeStyle=orthogonalEdgeStyle;rounded=0;orthogonalLoop=1;jettySize=auto;html=1;entryX=1;entryY=0.75;entryDx=0;entryDy=0;" edge="1" parent="1" source="FtL78UARy_mJjxNi5V5w-22" target="FtL78UARy_mJjxNi5V5w-1">
          <mxGeometry relative="1" as="geometry">
            <Array as="points">
              <mxPoint x="440" y="-40" />
            </Array>
          </mxGeometry>
        </mxCell>
        <mxCell id="FtL78UARy_mJjxNi5V5w-22" value="Bendereço" style="ellipse;whiteSpace=wrap;html=1;align=center;" vertex="1" parent="1">
          <mxGeometry x="400" y="-140" width="100" height="40" as="geometry" />
        </mxCell>
        <mxCell id="FtL78UARy_mJjxNi5V5w-29" style="edgeStyle=orthogonalEdgeStyle;rounded=0;orthogonalLoop=1;jettySize=auto;html=1;entryX=1;entryY=0.75;entryDx=0;entryDy=0;" edge="1" parent="1" source="FtL78UARy_mJjxNi5V5w-23" target="FtL78UARy_mJjxNi5V5w-3">
          <mxGeometry relative="1" as="geometry" />
        </mxCell>
        <mxCell id="FtL78UARy_mJjxNi5V5w-23" value="Cendereço" style="ellipse;whiteSpace=wrap;html=1;align=center;" vertex="1" parent="1">
          <mxGeometry x="710" y="-10" width="100" height="40" as="geometry" />
        </mxCell>
        <mxCell id="FtL78UARy_mJjxNi5V5w-24" value="Cnome" style="ellipse;whiteSpace=wrap;html=1;align=center;fontStyle=4;" vertex="1" parent="1">
          <mxGeometry x="590" y="-80" width="100" height="40" as="geometry" />
        </mxCell>
        <mxCell id="FtL78UARy_mJjxNi5V5w-25" value="Licença" style="ellipse;whiteSpace=wrap;html=1;align=center;fontStyle=4;" vertex="1" parent="1">
          <mxGeometry x="-110" y="-150" width="100" height="40" as="geometry" />
        </mxCell>
        <mxCell id="FtL78UARy_mJjxNi5V5w-28" style="edgeStyle=orthogonalEdgeStyle;rounded=0;orthogonalLoop=1;jettySize=auto;html=1;entryX=0.7;entryY=0.25;entryDx=0;entryDy=0;entryPerimeter=0;" edge="1" parent="1" source="FtL78UARy_mJjxNi5V5w-24" target="FtL78UARy_mJjxNi5V5w-3">
          <mxGeometry relative="1" as="geometry" />
        </mxCell>
      </root>
    </mxGraphModel>
  </diagram>
</mxfile>
